<?xml version="1.0" encoding="UTF-8" standalone="no"?>
<svg
   width="1404"
   height="560"
   version="1.1"
   id="svg246"
   xmlns:xlink="http://www.w3.org/1999/xlink"
   xmlns="http://www.w3.org/2000/svg"
   xmlns:svg="http://www.w3.org/2000/svg"
   xmlns:lucid="lucid">
  <defs
     id="defs250">
    <clipPath
       clipPathUnits="userSpaceOnUse"
       id="clipPath471">
      <rect
         style="fill:#000000"
         id="rect473"
         width="1404"
         height="560"
         x="196"
         y="80" />
    </clipPath>
  </defs>
  <g
     lucid:page-tab-id="0_0"
     id="g244"
     transform="translate(-196 -80)"
     clip-path="url(#clipPath471)">
    <path
       d="M0 0h1870.87v1322.83H0z"
       fill="#fff"
       id="path18" />
    <path
       d="M300 223a3 3 0 0 1 3-3h194a3 3 0 0 1 3 3v294a3 3 0 0 1-3 3H303a3 3 0 0 1-3-3z"
       stroke="#3a414a"
       fill="#edf5ff"
       id="path20" />
    <path
       d="M280.5 540h223.12M280.5 540h-.5"
       stroke="#3a414a"
       fill="none"
       id="path22" />
    <path
       d="M518.38 540l-14.26 4.64v-9.28z"
       stroke="#3a414a"
       fill="#3a414a"
       id="path24" />
    <path
       d="M280 539.5V216.38M280 539.5v.5"
       stroke="#3a414a"
       fill="none"
       id="path26" />
    <path
       d="M280 201.62l4.64 14.26h-9.28z"
       stroke="#3a414a"
       fill="#3a414a"
       id="path28" />
    <path
       d="M280 566a6 6 0 0 1 6-6h228a6 6 0 0 1 6 6v28a6 6 0 0 1-6 6H286a6 6 0 0 1-6-6z"
       stroke="#000"
       stroke-opacity="0"
       fill="#fff"
       fill-opacity="0"
       id="path30" />
    <use
       xlink:href="#a"
       transform="matrix(1,0,0,1,285,565) translate(94.07407407407408 19.65277777777778)"
       id="use32" />
    <path
       d="M226 520a6 6 0 0 1-6-6V226a6 6 0 0 1 6-6h29.67a6 6 0 0 1 6 6v288a6 6 0 0 1-6 6z"
       stroke="#000"
       stroke-opacity="0"
       fill="#fff"
       fill-opacity="0"
       id="path34" />
    <use
       xlink:href="#b"
       transform="matrix(6.123233995736766e-17,-1,1,6.123233995736766e-17,224.99999999999997,515) translate(96.2962962962963 19.77777777777778)"
       id="use36" />
    <g
       opacity=".6"
       id="g42">
      <path
         d="M720 223a3 3 0 0 1 3-3h194a3 3 0 0 1 3 3v294a3 3 0 0 1-3 3H723a3 3 0 0 1-3-3z"
         fill="#edf5ff"
         id="path38" />
      <path
         d="M732.5 220.04h9.98m4.98 0h9.98m4.98 0h9.97m4.98 0l9.97-.02m5 0h9.96m5 0h9.97m5 0h9.96m5 0h9.96m4.98 0h9.97m5 0h9.96m5 0l9.97-.02m4.98 0h9.98m4.98 0h5l.47.04.46.1.43.2.4.23.36.3.3.37.25.4.18.43.1.46v4.9m0 4.92l.02 9.8m0 4.92v9.82m0 4.9v9.8m0 4.92v9.8m0 4.92v9.82m0 4.9v9.82m0 4.9v9.82m0 4.9v9.83m0 4.9v9.82m0 4.9v9.82m0 4.9v9.83m0 4.9l.02 9.82m0 4.9v9.82m0 4.9v9.83m0 4.9v9.82m0 4.9v9.8m0 4.92v9.82m0 4.9v9.82m0 4.9v9.82m0 4.9V517l-.04.47-.1.46-.2.43-.23.4-.3.36-.37.3-.4.25-.43.18-.46.1h-5m-4.97 0l-9.98.02m-4.98 0h-9.98m-4.98 0h-9.97m-4.98 0h-9.97m-5 0h-9.96m-5 0h-9.97m-5 0h-9.96m-5 0l-9.96.02m-4.98 0h-9.97m-5 0h-9.96m-5 0h-9.97m-4.98 0h-9.98m-4.98 0h-5l-.47-.04-.46-.1-.43-.2-.4-.23-.36-.3-.3-.37-.25-.4-.18-.43-.1-.46v-4.9m0-4.92l-.02-9.8m0-4.92v-9.82m0-4.9v-9.8m0-4.92v-9.8m0-4.92v-9.82m0-4.9v-9.82m0-4.9v-9.82m0-4.9v-9.83m0-4.9v-9.82m0-4.9v-9.82m0-4.9v-9.83m0-4.9l-.02-9.82m0-4.9v-9.82m0-4.9v-9.83m0-4.9v-9.82m0-4.9V277m0-4.92v-9.82m0-4.9v-9.82m0-4.9v-9.82m0-4.9V223l.04-.47.1-.46.2-.43.23-.4.3-.36.37-.3.4-.25.43-.18.46-.1h5"
         stroke="#3a414a"
         fill="none"
         id="path40" />
    </g>
    <path
       d="M700.5 540h403.12M700.5 540h-.5"
       stroke="#3a414a"
       fill="none"
       id="path44" />
    <path
       d="M1118.38 540l-14.26 4.64v-9.28z"
       stroke="#3a414a"
       fill="#3a414a"
       id="path46" />
    <path
       d="M700 539.5V216.38M700 539.5v.5"
       stroke="#3a414a"
       fill="none"
       id="path48" />
    <path
       d="M700 201.62l4.64 14.26h-9.28z"
       stroke="#3a414a"
       fill="#3a414a"
       id="path50" />
    <path
       d="M700 566a6 6 0 0 1 6-6h388a6 6 0 0 1 6 6v28a6 6 0 0 1-6 6H706a6 6 0 0 1-6-6z"
       stroke="#000"
       stroke-opacity="0"
       fill="#fff"
       fill-opacity="0"
       id="path52" />
    <use
       xlink:href="#a"
       transform="matrix(1,0,0,1,705,565.0000000000001) translate(174.07407407407408 19.65277777777778)"
       id="use54" />
    <path
       d="M646 520a6 6 0 0 1-6-6V226a6 6 0 0 1 6-6h29.67a6 6 0 0 1 6 6v288a6 6 0 0 1-6 6z"
       stroke="#000"
       stroke-opacity="0"
       fill="#fff"
       fill-opacity="0"
       id="path56" />
    <use
       xlink:href="#b"
       transform="matrix(6.123233995736766e-17,-1,1,6.123233995736766e-17,645,515.0000000000002) translate(96.2962962962963 19.77777777777778)"
       id="use58" />
    <g
       opacity=".6"
       id="g64">
      <path
         d="M720 283a3 3 0 0 1 3-3h254a3 3 0 0 1 3 3v234a3 3 0 0 1-3 3H723a3 3 0 0 1-3-3z"
         fill="#edf5ff"
         id="path60" />
      <path
         d="M732.5 280.04h10m4.98 0h9.98m5 0h9.97m5 0h9.97m5 0h9.96m5-.02h9.97m5 0h9.97m5 0h9.97m5 0h9.97m5 0h9.97m5 0h9.98m5 0h9.97m5 0h9.96m5 0h9.98m5 0l9.97-.02m5 0H967m5 0H977l.47.04.46.1.43.2.4.23.36.3.3.37.25.4.18.43.1.46v4.9m0 4.87l.02 9.77m0 4.88v9.77m0 4.9v9.76m0 4.88v9.77m0 4.9v9.76m0 4.87v9.77m0 4.9V390m0 4.88v9.77m0 4.88v9.77m.02 4.9v9.76m0 4.88v9.77m0 4.9v9.77m0 4.88v9.77m0 4.9v9.76m0 4.88v9.77m0 4.9V517l-.04.47-.1.46-.2.43-.23.4-.3.36-.37.3-.4.25-.43.18-.46.1h-5m-4.98 0l-10 .02m-4.98 0h-9.98m-5 0h-9.97m-5 0h-9.97m-5 0h-9.96m-5 0h-9.97m-5 0h-9.97m-5 0h-9.97m-5 0h-9.97m-5 0l-9.97.02m-5 0h-9.98m-5 0h-9.97m-5 0h-9.96m-5 0h-9.98m-5 0h-9.97m-5 0H733m-5 0H723l-.47-.04-.46-.1-.43-.2-.4-.23-.36-.3-.3-.37-.25-.4-.18-.43-.1-.46v-4.9m0-4.87l-.02-9.77m0-4.88v-9.77m0-4.9v-9.76m0-4.88v-9.77m0-4.9v-9.76m0-4.87v-9.77m0-4.9V410m0-4.88v-9.77m0-4.88v-9.77m-.02-4.9v-9.76m0-4.88v-9.77m0-4.9v-9.77m0-4.88v-9.77m0-4.9v-9.76m0-4.88v-9.77m0-4.9V283l.04-.47.1-.46.2-.43.23-.4.3-.36.37-.3.4-.25.43-.18.46-.1h5"
         stroke="#3a414a"
         fill="none"
         id="path62" />
    </g>
    <g
       opacity=".6"
       id="g70">
      <path
         d="M720 343a3 3 0 0 1 3-3h314a3 3 0 0 1 3 3v174a3 3 0 0 1-3 3H723a3 3 0 0 1-3-3z"
         fill="#edf5ff"
         id="path66" />
      <path
         d="M732.5 340.04h10m5 0h9.97m5 0h9.98m5 0h9.97m5 0h9.98m5 0h9.97m5 0l9.98-.02m5 0h9.97m5 0h9.97m5 0h9.97m5 0h9.97m5 0h9.98m5 0h9.97m5 0h9.97m5 0h9.97m5 0h9.98m5 0h9.97m4.98 0l10-.02m4.98 0h9.98m5 0h9.98m5 0h4.98l.47.04.46.1.43.2.4.23.36.3.3.37.25.4.18.43.1.46v4.85m.02 4.84v9.7m0 4.84v9.7m0 4.84v9.7m0 4.84v9.7m0 4.84v9.7m0 4.84v9.7m0 4.84l.02 9.7m0 4.84v9.7m0 4.84v9.7m0 4.84v9.7m0 4.83v9.7m0 4.85V517l-.04.47-.1.46-.2.43-.23.4-.3.36-.37.3-.4.25-.43.18-.46.1h-5m-4.98 0l-10 .02m-5 0h-9.97m-5 0h-9.98m-5 0h-9.97m-5 0h-9.98m-5 0h-9.97m-5 0h-9.98m-5 0h-9.97m-5 0h-9.97m-5 0h-9.97m-5 0h-9.97m-5 0h-9.98m-5 .02h-9.97m-5 0h-9.97m-5 0h-9.97m-5 0h-9.98m-5 0h-9.97m-4.98 0h-10m-4.98 0h-9.98m-5 0H733m-5 0H723l-.47-.04-.46-.1-.43-.2-.4-.23-.36-.3-.3-.37-.25-.4-.18-.43-.1-.46v-4.85m-.02-4.84v-9.7m0-4.84v-9.7m0-4.84V469m0-4.84v-9.7m0-4.84v-9.7m0-4.84v-9.7m0-4.84l-.02-9.7m0-4.84v-9.7m0-4.84v-9.7m0-4.84v-9.7m0-4.83v-9.7m0-4.85V343l.04-.47.1-.46.2-.43.23-.4.3-.36.37-.3.4-.25.43-.18.46-.1h5"
         stroke="#3a414a"
         fill="none"
         id="path68" />
    </g>
    <g
       opacity=".6"
       id="g76">
      <path
         d="M720 403a3 3 0 0 1 3-3h374a3 3 0 0 1 3 3v114a3 3 0 0 1-3 3H723a3 3 0 0 1-3-3z"
         fill="#edf5ff"
         id="path72" />
      <path
         d="M732.52 400.04h9.98m5 0h9.98m5 0h9.98m5 0h9.98m5 0h9.98m5 0h9.98m5 0h9.98m5 0l9.97-.02m5 0h9.98m5 0h9.98m5 0h10m4.98 0h10m4.98 0h10m4.98 0h10m4.98 0h10m4.98 0h9.98m5 0h9.98m5 0h9.98m5 0h9.98m5 0h9.98m5 0h9.98m5-.02h9.98m5 0h9.98m5 0h9.97m5 0h5l.47.04.46.1.43.2.4.23.36.3.3.37.25.4.18.43.1.46v4.77m.02 4.77v9.54m0 4.78v9.54m0 4.77v9.53m0 4.77v9.53m0 4.77l.02 9.54m0 4.77v9.55m0 4.77v9.54m0 4.77V517l-.04.47-.1.46-.2.43-.23.4-.3.36-.37.3-.4.25-.43.18-.46.1h-5m-5 0h-9.97m-5 .02h-9.98m-5 0h-9.98m-5 0h-9.98m-5 0h-9.98m-5 0h-9.98m-5 0h-9.98m-5 0h-9.97m-5 0h-9.98m-5 0h-9.98m-5 0h-10m-4.98 0h-10m-4.98 0h-10m-4.98 0h-10m-4.98 0l-10 .02m-4.98 0h-9.98m-5 0h-9.98m-5 0h-9.98m-5 0h-9.98m-5 0h-9.98m-5 0h-9.98m-5 0h-9.98m-5 0h-9.98m-5 0H733m-5 0h-5l-.47-.04-.46-.1-.43-.2-.4-.23-.36-.3-.3-.37-.25-.4-.18-.43-.1-.46v-4.77m-.02-4.77v-9.54m0-4.78v-9.54m0-4.77v-9.53m0-4.77v-9.53m0-4.77l-.02-9.54m0-4.77v-9.55m0-4.77v-9.54m0-4.77V403l.04-.47.1-.46.2-.43.23-.4.3-.36.37-.3.4-.25.43-.18.46-.1h5"
         stroke="#3a414a"
         fill="none"
         id="path74" />
    </g>
    <path
       d="M280 126a6 6 0 0 1 6-6h228a6 6 0 0 1 6 6v48a6 6 0 0 1-6 6H286a6 6 0 0 1-6-6z"
       stroke="#000"
       stroke-opacity="0"
       fill="#fff"
       fill-opacity="0"
       id="path78" />
    <use
       xlink:href="#c"
       transform="matrix(1,0,0,1,285,125) translate(58.98765432098768 32.6736111111111)"
       id="use80" />
    <use
       xlink:href="#d"
       transform="matrix(1,0,0,1,285,125) translate(132.57407407407408 32.6736111111111)"
       id="use82" />
    <path
       d="M700 126a6 6 0 0 1 6-6h388a6 6 0 0 1 6 6v48a6 6 0 0 1-6 6H706a6 6 0 0 1-6-6z"
       stroke="#000"
       stroke-opacity="0"
       fill="#fff"
       fill-opacity="0"
       id="path84" />
    <use
       xlink:href="#e"
       transform="matrix(1,0,0,1,705,125.00000000000009) translate(113.30864197530867 32.6736111111111)"
       id="use86" />
    <use
       xlink:href="#d"
       transform="matrix(1,0,0,1,705,125.00000000000009) translate(238.25308641975306 32.6736111111111)"
       id="use88" />
    <path
       d="M1300.5 540h243.12M1300.5 540h-.5"
       stroke="#3a414a"
       fill="none"
       id="path90" />
    <path
       d="M1558.38 540l-14.26 4.64v-9.28z"
       stroke="#3a414a"
       fill="#3a414a"
       id="path92" />
    <path
       d="M1300 539.5V216.38M1300 539.5v.5"
       stroke="#3a414a"
       fill="none"
       id="path94" />
    <path
       d="M1300 201.62l4.64 14.26h-9.28z"
       stroke="#3a414a"
       fill="#3a414a"
       id="path96" />
    <path
       d="M1300 566a6 6 0 0 1 6-6h228a6 6 0 0 1 6 6v28a6 6 0 0 1-6 6h-228a6 6 0 0 1-6-6z"
       stroke="#000"
       stroke-opacity="0"
       fill="#fff"
       fill-opacity="0"
       id="path98" />
    <use
       xlink:href="#f"
       transform="matrix(1,0,0,1,1305,565.0000000000002) translate(94.07407407407408 19.65277777777778)"
       id="use100" />
    <path
       d="M1246 520a6 6 0 0 1-6-6V226a6 6 0 0 1 6-6h29.67a6 6 0 0 1 6 6v288a6 6 0 0 1-6 6z"
       stroke="#000"
       stroke-opacity="0"
       fill="#fff"
       fill-opacity="0"
       id="path102" />
    <use
       xlink:href="#g"
       transform="matrix(6.123233995736766e-17,-1,1,6.123233995736766e-17,1245,515.0000000000002) translate(96.2962962962963 19.77777777777778)"
       id="use104" />
    <path
       d="M1300 126a6 6 0 0 1 6-6h228a6 6 0 0 1 6 6v48a6 6 0 0 1-6 6h-228a6 6 0 0 1-6-6z"
       stroke="#000"
       stroke-opacity="0"
       fill="#fff"
       fill-opacity="0"
       id="path106" />
    <use
       xlink:href="#h"
       transform="matrix(1,0,0,1,1305,125.0000000000001) translate(35.635802469135825 32.6736111111111)"
       id="use108" />
    <use
       xlink:href="#d"
       transform="matrix(1,0,0,1,1305,125.0000000000001) translate(155.92592592592592 32.6736111111111)"
       id="use110" />
    <path
       d="M1500 422a3 3 0 0 1-3 3h-44a3 3 0 0 1-3-3V318a3 3 0 0 0-3-3h-49a3 3 0 0 0-3 3v59a3 3 0 0 1-3 3h-34a3 3 0 0 1-3-3V223a3 3 0 0 0-3-3h-29a3 3 0 0 0-3 3v294a3 3 0 0 0 3 3h209a3 3 0 0 0 3-3V278a3 3 0 0 0-3-3h-29a3 3 0 0 0-3 3z"
       stroke="#3a414a"
       fill="#edf5ff"
       id="path112" />
    <defs
       id="defs242">
      <path
         fill="#3a414a"
         d="M59-47c-2 24 18 29 38 22v24C64 9 27 4 27-40v-127H5v-23h24l9-43h21v43h35v23H59v120"
         id="i" />
      <path
         fill="#3a414a"
         d="M24-231v-30h32v30H24zM24 0v-190h32V0H24"
         id="j" />
      <path
         fill="#3a414a"
         d="M210-169c-67 3-38 105-44 169h-31v-121c0-29-5-50-35-48C34-165 62-65 56 0H25l-1-190h30c1 10-1 24 2 32 10-44 99-50 107 0 11-21 27-35 58-36 85-2 47 119 55 194h-31v-121c0-29-5-49-35-48"
         id="k" />
      <path
         fill="#3a414a"
         d="M100-194c63 0 86 42 84 106H49c0 40 14 67 53 68 26 1 43-12 49-29l28 8c-11 28-37 45-77 45C44 4 14-33 15-96c1-61 26-98 85-98zm52 81c6-60-76-77-97-28-3 7-6 17-6 28h103"
         id="l" />
      <g
         id="a">
        <use
           transform="matrix(0.06172839506172839,0,0,0.06172839506172839,0,0)"
           xlink:href="#i"
           id="use118" />
        <use
           transform="matrix(0.06172839506172839,0,0,0.06172839506172839,6.172839506172839,0)"
           xlink:href="#j"
           id="use120" />
        <use
           transform="matrix(0.06172839506172839,0,0,0.06172839506172839,11.049382716049383,0)"
           xlink:href="#k"
           id="use122" />
        <use
           transform="matrix(0.06172839506172839,0,0,0.06172839506172839,29.50617283950617,0)"
           xlink:href="#l"
           id="use124" />
      </g>
      <path
         fill="#3a414a"
         d="M114-163C36-179 61-72 57 0H25l-1-190h30c1 12-1 29 2 39 6-27 23-49 58-41v29"
         id="m" />
      <path
         fill="#3a414a"
         d="M135-143c-3-34-86-38-87 0 15 53 115 12 119 90S17 21 10-45l28-5c4 36 97 45 98 0-10-56-113-15-118-90-4-57 82-63 122-42 12 7 21 19 24 35"
         id="n" />
      <path
         fill="#3a414a"
         d="M100-194c62-1 85 37 85 99 1 63-27 99-86 99S16-35 15-95c0-66 28-99 85-99zM99-20c44 1 53-31 53-75 0-43-8-75-51-75s-53 32-53 75 10 74 51 75"
         id="o" />
      <path
         fill="#3a414a"
         d="M84 4C-5 8 30-112 23-190h32v120c0 31 7 50 39 49 72-2 45-101 50-169h31l1 190h-30c-1-10 1-25-2-33-11 22-28 36-60 37"
         id="p" />
      <path
         fill="#3a414a"
         d="M96-169c-40 0-48 33-48 73s9 75 48 75c24 0 41-14 43-38l32 2c-6 37-31 61-74 61-59 0-76-41-82-99-10-93 101-131 147-64 4 7 5 14 7 22l-32 3c-4-21-16-35-41-35"
         id="q" />
      <g
         id="b">
        <use
           transform="matrix(0.06172839506172839,0,0,0.06172839506172839,0,0)"
           xlink:href="#m"
           id="use132" />
        <use
           transform="matrix(0.06172839506172839,0,0,0.06172839506172839,7.345679012345679,0)"
           xlink:href="#l"
           id="use134" />
        <use
           transform="matrix(0.06172839506172839,0,0,0.06172839506172839,19.691358024691358,0)"
           xlink:href="#n"
           id="use136" />
        <use
           transform="matrix(0.06172839506172839,0,0,0.06172839506172839,30.80246913580247,0)"
           xlink:href="#o"
           id="use138" />
        <use
           transform="matrix(0.06172839506172839,0,0,0.06172839506172839,43.148148148148145,0)"
           xlink:href="#p"
           id="use140" />
        <use
           transform="matrix(0.06172839506172839,0,0,0.06172839506172839,55.49382716049382,0)"
           xlink:href="#m"
           id="use142" />
        <use
           transform="matrix(0.06172839506172839,0,0,0.06172839506172839,62.8395061728395,0)"
           xlink:href="#q"
           id="use144" />
        <use
           transform="matrix(0.06172839506172839,0,0,0.06172839506172839,73.9506172839506,0)"
           xlink:href="#l"
           id="use146" />
        <use
           transform="matrix(0.06172839506172839,0,0,0.06172839506172839,86.29629629629629,0)"
           xlink:href="#n"
           id="use148" />
      </g>
      <path
         fill="#3a414a"
         d="M233-177c-1 41-23 64-60 70L243 0h-38l-65-103H63V0H30v-248c88 3 205-21 203 71zM63-129c60-2 137 13 137-47 0-61-80-42-137-45v92"
         id="r" />
      <path
         fill="#3a414a"
         d="M177-190C167-65 218 103 67 71c-23-6-38-20-44-43l32-5c15 47 100 32 89-28v-30C133-14 115 1 83 1 29 1 15-40 15-95c0-56 16-97 71-98 29-1 48 16 59 35 1-10 0-23 2-32h30zM94-22c36 0 50-32 50-73 0-42-14-75-50-75-39 0-46 34-46 75s6 73 46 73"
         id="s" />
      <path
         fill="#3a414a"
         d="M85-194c31 0 48 13 60 33l-1-100h32l1 261h-30c-2-10 0-23-3-31C134-8 116 4 85 4 32 4 16-35 15-94c0-66 23-100 70-100zm9 24c-40 0-46 34-46 75 0 40 6 74 45 74 42 0 51-32 51-76 0-42-9-74-50-73"
         id="t" />
      <g
         id="c">
        <use
           transform="matrix(0.08024691358024688,0,0,0.08024691358024688,0,0)"
           xlink:href="#r"
           id="use154" />
        <use
           transform="matrix(0.08024691358024688,0,0,0.08024691358024688,20.783950617283942,0)"
           xlink:href="#j"
           id="use156" />
        <use
           transform="matrix(0.08024691358024688,0,0,0.08024691358024688,27.123456790123445,0)"
           xlink:href="#s"
           id="use158" />
        <use
           transform="matrix(0.08024691358024688,0,0,0.08024691358024688,43.17283950617282,0)"
           xlink:href="#j"
           id="use160" />
        <use
           transform="matrix(0.08024691358024688,0,0,0.08024691358024688,49.51234567901233,0)"
           xlink:href="#t"
           id="use162" />
      </g>
      <path
         fill="#3a414a"
         d="M24-231v-30h32v30H24zM-9 49c24 4 33-6 33-30v-209h32V24c2 40-23 58-65 49V49"
         id="u" />
      <path
         fill="#3a414a"
         d="M115-194c53 0 69 39 70 98 0 66-23 100-70 100C84 3 66-7 56-30L54 0H23l1-261h32v101c10-23 28-34 59-34zm-8 174c40 0 45-34 45-75 0-40-5-75-45-74-42 0-51 32-51 76 0 43 10 73 51 73"
         id="v" />
      <g
         id="d">
        <use
           transform="matrix(0.08024691358024688,0,0,0.08024691358024688,0,0)"
           xlink:href="#u"
           id="use167" />
        <use
           transform="matrix(0.08024691358024688,0,0,0.08024691358024688,6.339506172839504,0)"
           xlink:href="#o"
           id="use169" />
        <use
           transform="matrix(0.08024691358024688,0,0,0.08024691358024688,22.38888888888888,0)"
           xlink:href="#v"
           id="use171" />
      </g>
      <path
         fill="#3a414a"
         d="M240 0l2-218c-23 76-54 145-80 218h-23L58-218 59 0H30v-248h44l77 211c21-75 51-140 76-211h43V0h-30"
         id="w" />
      <path
         fill="#3a414a"
         d="M24 0v-261h32V0H24"
         id="x" />
      <path
         fill="#3a414a"
         d="M141-36C126-15 110 5 73 4 37 3 15-17 15-53c-1-64 63-63 125-63 3-35-9-54-41-54-24 1-41 7-42 31l-33-3c5-37 33-52 76-52 45 0 72 20 72 64v82c-1 20 7 32 28 27v20c-31 9-61-2-59-35zM48-53c0 20 12 33 32 33 41-3 63-29 60-74-43 2-92-5-92 41"
         id="y" />
      <g
         id="e">
        <use
           transform="matrix(0.08024691358024688,0,0,0.08024691358024688,0,0)"
           xlink:href="#w"
           id="use177" />
        <use
           transform="matrix(0.08024691358024688,0,0,0.08024691358024688,23.99382716049382,0)"
           xlink:href="#o"
           id="use179" />
        <use
           transform="matrix(0.08024691358024688,0,0,0.08024691358024688,40.043209876543195,0)"
           xlink:href="#x"
           id="use181" />
        <use
           transform="matrix(0.08024691358024688,0,0,0.08024691358024688,46.3827160493827,0)"
           xlink:href="#t"
           id="use183" />
        <use
           transform="matrix(0.08024691358024688,0,0,0.08024691358024688,62.43209876543207,0)"
           xlink:href="#y"
           id="use185" />
        <use
           transform="matrix(0.08024691358024688,0,0,0.08024691358024688,78.48148148148145,0)"
           xlink:href="#v"
           id="use187" />
        <use
           transform="matrix(0.08024691358024688,0,0,0.08024691358024688,94.53086419753083,0)"
           xlink:href="#x"
           id="use189" />
        <use
           transform="matrix(0.08024691358024688,0,0,0.08024691358024688,100.87037037037032,0)"
           xlink:href="#l"
           id="use191" />
      </g>
      <g
         id="f">
        <use
           transform="matrix(0.06172839506172839,0,0,0.06172839506172839,0,0)"
           xlink:href="#i"
           id="use194" />
        <use
           transform="matrix(0.06172839506172839,0,0,0.06172839506172839,6.172839506172839,0)"
           xlink:href="#j"
           id="use196" />
        <use
           transform="matrix(0.06172839506172839,0,0,0.06172839506172839,11.049382716049383,0)"
           xlink:href="#k"
           id="use198" />
        <use
           transform="matrix(0.06172839506172839,0,0,0.06172839506172839,29.50617283950617,0)"
           xlink:href="#l"
           id="use200" />
      </g>
      <g
         id="g">
        <use
           transform="matrix(0.06172839506172839,0,0,0.06172839506172839,0,0)"
           xlink:href="#m"
           id="use203" />
        <use
           transform="matrix(0.06172839506172839,0,0,0.06172839506172839,7.345679012345679,0)"
           xlink:href="#l"
           id="use205" />
        <use
           transform="matrix(0.06172839506172839,0,0,0.06172839506172839,19.691358024691358,0)"
           xlink:href="#n"
           id="use207" />
        <use
           transform="matrix(0.06172839506172839,0,0,0.06172839506172839,30.80246913580247,0)"
           xlink:href="#o"
           id="use209" />
        <use
           transform="matrix(0.06172839506172839,0,0,0.06172839506172839,43.148148148148145,0)"
           xlink:href="#p"
           id="use211" />
        <use
           transform="matrix(0.06172839506172839,0,0,0.06172839506172839,55.49382716049382,0)"
           xlink:href="#m"
           id="use213" />
        <use
           transform="matrix(0.06172839506172839,0,0,0.06172839506172839,62.8395061728395,0)"
           xlink:href="#q"
           id="use215" />
        <use
           transform="matrix(0.06172839506172839,0,0,0.06172839506172839,73.9506172839506,0)"
           xlink:href="#l"
           id="use217" />
        <use
           transform="matrix(0.06172839506172839,0,0,0.06172839506172839,86.29629629629629,0)"
           xlink:href="#n"
           id="use219" />
      </g>
      <path
         fill="#3a414a"
         d="M205 0l-28-72H64L36 0H1l101-248h38L239 0h-34zm-38-99l-47-123c-12 45-31 82-46 123h93"
         id="z" />
      <path
         fill="#3a414a"
         d="M115-194c55 1 70 41 70 98S169 2 115 4C84 4 66-9 55-30l1 105H24l-1-265h31l2 30c10-21 28-34 59-34zm-8 174c40 0 45-34 45-75s-6-73-45-74c-42 0-51 32-51 76 0 43 10 73 51 73"
         id="A" />
      <path
         fill="#3a414a"
         d="M108 0H70L1-190h34L89-25l56-165h34"
         id="B" />
      <g
         id="h">
        <use
           transform="matrix(0.08024691358024688,0,0,0.08024691358024688,0,0)"
           xlink:href="#z"
           id="use225" />
        <use
           transform="matrix(0.08024691358024688,0,0,0.08024691358024688,19.259259259259252,0)"
           xlink:href="#t"
           id="use227" />
        <use
           transform="matrix(0.08024691358024688,0,0,0.08024691358024688,35.30864197530863,0)"
           xlink:href="#y"
           id="use229" />
        <use
           transform="matrix(0.08024691358024688,0,0,0.08024691358024688,51.35802469135801,0)"
           xlink:href="#A"
           id="use231" />
        <use
           transform="matrix(0.08024691358024688,0,0,0.08024691358024688,67.40740740740739,0)"
           xlink:href="#i"
           id="use233" />
        <use
           transform="matrix(0.08024691358024688,0,0,0.08024691358024688,75.43209876543207,0)"
           xlink:href="#j"
           id="use235" />
        <use
           transform="matrix(0.08024691358024688,0,0,0.08024691358024688,81.77160493827158,0)"
           xlink:href="#B"
           id="use237" />
        <use
           transform="matrix(0.08024691358024688,0,0,0.08024691358024688,96.21604938271602,0)"
           xlink:href="#l"
           id="use239" />
      </g>
    </defs>
  </g>
</svg>
