<?xml version="1.0" encoding="UTF-8" standalone="no"?>
<svg
   width="56.5mm"
   height="15.5mm"
   viewBox="0 0 160.15812 43.940942"
   version="1.1"
   id="svg28"
   xmlns="http://www.w3.org/2000/svg"
   xmlns:svg="http://www.w3.org/2000/svg"
   xmlns:rdf="http://www.w3.org/1999/02/22-rdf-syntax-ns#"
   xmlns:cc="http://creativecommons.org/ns#"
   xmlns:dc="http://purl.org/dc/elements/1.1/">
  <defs
     id="defs4">
    <style
       id="style2">
      .a {
        fill: #1d1d1b;
      }
    </style>
  </defs>
  <title
     id="title6">elastisim</title>
  <g
     id="g26"
     transform="translate(1.199061,0.99904271)">
    <path
       class="a"
       d="M 26.74,22.21 15.39,22.15 q -0.62,6.17 -5.74,12.33 6.9,0.33 13.79,0.59 a 42.81,42.81 0 0 1 -2.78,3.86 q -9.4,-0.43 -18.8,-1 19,-16.84 1.36,-33.7 Q 12.09,3.71 21,3.31 a 39.59,39.59 0 0 1 2.6,3.86 Q 17.15,7.4 10.71,7.69 a 22.25,22.25 0 0 1 4.7,10.8 l 11.35,-0.07 a 21.81,21.81 0 0 1 -0.02,3.79 z"
       id="path8" />
    <path
       class="a"
       d="m 22.68,1.26 4.4,-0.19 Q 40.85,20.15 27.5,39.23 L 23.13,39.05 Q 37.62,20.15 22.68,1.26 Z"
       id="path10" />
    <path
       class="a"
       d="m 45.15,39.83 q 0.59,-1.69 1.05,-3.39 H 46.05 A 13,13 0 0 1 37,40.2 c -5,-0.18 -4.85,-4 -3.26,-7.78 2.6,-6.3 6.84,-9.74 15,-9.67 0,-0.19 0,-0.37 0,-0.56 0.16,-2.21 -0.62,-6.21 -5,-6.17 a 8.3,8.3 0 0 0 -5.27,2 c -0.38,-1.05 -0.8,-2.1 -1.29,-3.14 a 9.6,9.6 0 0 1 6.52,-2.44 c 6.64,-0.11 9.15,5.51 8.75,10.92 a 51.27,51.27 0 0 1 -1.64,10.09 c -0.61,2.34 -1.31,4.62 -1.74,6.47 z m 3.38,-13.7 C 44.25,26 39.7,26.86 38,32 c -1.17,3.11 -0.21,4.64 2,4.7 a 8.37,8.37 0 0 0 7,-4.37 6.32,6.32 0 0 0 0.63,-1.55 44.73,44.73 0 0 0 0.9,-4.65 z"
       id="path12" />
    <path
       class="a"
       d="m 53.73,35 a 7.58,7.58 0 0 0 5,2 c 3.07,0.05 4.83,-1.74 5.12,-4 0.29,-2.26 -0.71,-3.68 -3.44,-5 -3.66,-1.78 -5.13,-4.47 -5.15,-7.71 0,-4.35 2.15,-8 6.81,-8 a 9.27,9.27 0 0 1 5.38,1.66 q -0.37,1.81 -0.81,3.63 A 7,7 0 0 0 62.27,16 c -2.27,0 -3.4,1.7 -3.38,3.72 0,2.25 1.21,3.26 3.89,4.62 3.56,1.81 5.37,4.2 5,8.28 -0.39,4.81 -4.27,8.18 -10.1,8.08 a 9.57,9.57 0 0 1 -6.13,-2 c 0.79,-1.25 1.51,-2.49 2.18,-3.7 z"
       id="path14" />
    <path
       class="a"
       d="m 74.92,4.93 q 0.17,3.95 0.25,7.89 h 5.56 v 3.81 h -5.51 q 0.09,7.4 -0.14,14.81 c -0.11,3.4 0.6,5.33 2.94,5.33 a 7.81,7.81 0 0 0 2.42,-0.34 c 0.09,1.25 0.17,2.5 0.27,3.75 a 9.4,9.4 0 0 1 -3.88,0.68 5.21,5.21 0 0 1 -4.57,-2.12 c -1.1,-1.48 -1.27,-3.92 -1.08,-7.15 q 0.46,-7.47 0.3,-15 h -3.26 c 0,-1.27 -0.09,-2.53 -0.17,-3.79 h 3.32 Q 71.22,9.52 70.97,6.23 Z"
       id="path16" />
    <path
       class="a"
       d="M 87.3,5.12 A 3,3 0 0 1 84.5,8.17 C 83.09,8.17 82.12,6.8 82.17,5.1 A 3,3 0 0 1 85,2 c 1.59,0 2.46,1.36 2.3,3.12 z M 82.89,40.28 Q 82.19,26.54 82.46,12.82 h 3.88 a 183.59,183.59 0 0 0 0.92,27.43 z"
       id="path18" />
    <path
       class="a"
       d="m 90.27,34.23 a 14,14 0 0 0 7.73,2.4 c 4.29,-0.06 5.91,-2.74 5.21,-6.54 -0.6,-3.52 -2.29,-5.51 -6.3,-7.48 -4.81,-2.18 -7.77,-5.42 -7.44,-10.79 0.29,-5.95 5.25,-10.34 11.8,-10.22 3.4,0.06 5.55,1 6.66,2 q -1.24,2 -2.3,3.94 a 8.81,8.81 0 0 0 -5.52,-1.89 6.25,6.25 0 0 0 -6.68,5.63 c -0.32,3.56 1.42,5.32 5.38,7.35 4.9,2.49 7.27,5.53 8.31,11 1.2,5.77 -0.32,10.9 -8.45,11 A 16.94,16.94 0 0 1 89.74,38.31 Q 90,36.28 90.27,34.23 Z"
       id="path20" />
    <path
       class="a"
       d="m 115.86,5.56 a 4.14,4.14 0 0 1 -3.63,2.92 c -1.41,0 -2.07,-1.37 -1.5,-3 a 4.31,4.31 0 0 1 3.83,-3 c 1.63,0.03 1.99,1.38 1.3,3.08 z M 113,39.82 A 45.26,45.26 0 0 1 109.28,13 h 3.89 q -2.62,13.32 4.19,26.65 z"
       id="path22" />
    <path
       class="a"
       d="m 116.16,20.26 a 47,47 0 0 1 0.63,-7.17 l 3.4,0.05 a 32.6,32.6 0 0 0 -0.55,4.24 h 0.13 a 8.66,8.66 0 0 1 7.63,-4.7 c 3,0.06 4.33,2.23 4.87,5.22 h 0.09 a 10.13,10.13 0 0 1 3,-3.26 8.52,8.52 0 0 1 5.34,-1.64 c 3.37,0.09 4.68,2.33 5.68,10.69 q 1.49,7.13 9.52,14.25 l -4.27,0.26 q -7.29,-7 -8.87,-13.9 c -1,-4.71 -1.4,-7.57 -4.59,-7.62 a 5.43,5.43 0 0 0 -4.88,4.13 6.09,6.09 0 0 0 -0.14,2.3 q 1,7.83 7.77,15.66 l -4.27,0.21 q -6.12,-7.68 -7.17,-15.36 c -0.55,-4.07 -1.33,-7 -4.29,-7.09 -2.4,0 -4.48,2.33 -5,4.72 a 6.23,6.23 0 0 0 -0.15,2.34 36.57,36.57 0 0 0 5.85,15.83 l -4.26,0.16 a 38,38 0 0 1 -5.47,-19.32 z"
       id="path24" />
  </g>
  <metadata
     id="metadata32">
    <rdf:RDF>
      <cc:Work
         rdf:about="">
        <dc:title>elastisim</dc:title>
      </cc:Work>
    </rdf:RDF>
  </metadata>
</svg>
